<svg xmlns="http://www.w3.org/2000/svg" width="40.887" height="17.16" viewBox="0 0 40.887 17.16"><defs><style>.a{fill:#b57560;}</style></defs><circle class="a" cx="3.5" cy="3.5" r="3.5" transform="translate(0 4.58)"/><g transform="translate(12.287)"><g transform="translate(0 0)"><path class="a" d="M20.119,992.613l7.627-8.1a.489.489,0,0,1,.678-.022.5.5,0,0,1,.022.678l-6.867,7.3H48.123a.477.477,0,1,1,0,.953H21.579l6.867,7.3a.5.5,0,0,1-.022.678.484.484,0,0,1-.678-.022l-7.627-8.1a.512.512,0,0,1,0-.656Z" transform="translate(-20 -984.362)"/></g></g></svg>