<svg xmlns="http://www.w3.org/2000/svg" width="38.466" height="29.658" viewBox="0 0 38.466 29.658"><defs><style>.a{fill:#b57560;}</style></defs><path class="a" d="M16.758,10l.967,1.507Q7.733,18.064,7.73,24.615c0,2.218.967,3.511,2.9,3.867L15.145,24.3a9.511,9.511,0,0,1,3.921,2.74,7.389,7.389,0,0,1,1.774,5.1,6.882,6.882,0,0,1-2.473,5.321,9.422,9.422,0,0,1-6.5,2.2A8.842,8.842,0,0,1,5.2,36.918,10.482,10.482,0,0,1,2.57,29.343Q2.579,18.808,16.758,10Zm20.2,0,.967,1.507q-9.992,6.557-9.995,13.109c0,2.218.967,3.511,2.9,3.867L35.342,24.3a9.511,9.511,0,0,1,3.921,2.74,7.389,7.389,0,0,1,1.774,5.1,6.882,6.882,0,0,1-2.473,5.321,9.4,9.4,0,0,1-6.5,2.2,8.842,8.842,0,0,1-6.661-2.74,10.482,10.482,0,0,1-2.634-7.575Q22.773,18.808,36.955,10Z" transform="translate(-2.57 -10)"/></svg>