<svg xmlns="http://www.w3.org/2000/svg" width="40.713" height="17.16" viewBox="0 0 40.713 17.16"><defs><style>.a{fill:#b57560;}</style></defs><circle class="a" cx="3.5" cy="3.5" r="3.5" transform="translate(33.713 4.58)"/><g transform="translate(-12.287 -32)"><g transform="translate(12.287 32)"><path class="a" d="M48.481,992.613l-7.627-8.1a.489.489,0,0,0-.678-.022.5.5,0,0,0-.022.678l6.867,7.3H20.477a.477.477,0,1,0,0,.953H47.021l-6.867,7.3a.5.5,0,0,0,.022.678.484.484,0,0,0,.678-.022l7.627-8.1a.512.512,0,0,0,0-.656Z" transform="translate(-20 -984.362)"/></g></g></svg>